<svg width="108" height="52" viewBox="0 0 108 52" fill="none" xmlns="http://www.w3.org/2000/svg">
<path d="M1.41194 41.4228H7.3684V43.2876H2.44391V45.3877H7.27788V47.2525H2.44391V49.5156H7.38651V51.3804H0.325653V42.5091C0.325653 41.9297 0.814481 41.4228 1.41194 41.4228Z" fill="#F26D28"/>
<path d="M9.48535 50.0046L10.6441 48.3933C11.3501 49.1175 12.4364 49.7331 13.8124 49.7331C14.9711 49.7331 15.5504 49.1899 15.5504 48.6287C15.5504 46.8725 9.81124 48.0674 9.81124 44.3197C9.81124 42.6541 11.2415 41.2781 13.5951 41.2781C14.7538 41.2781 15.7677 41.5316 16.6005 42.0204C17.1075 42.3101 17.2342 42.9981 16.8721 43.4507C16.5643 43.849 16.0212 43.9576 15.5867 43.7042C14.8987 43.3059 14.1383 43.1248 13.396 43.1248C12.4907 43.1248 11.9838 43.5231 11.9838 44.1206C11.9838 45.7138 17.7049 44.6456 17.7049 48.3752C17.7049 50.2038 16.4014 51.5797 13.7038 51.5797C11.7847 51.5797 10.4087 50.9461 9.48535 50.0046Z" fill="#F26D28"/>
<path d="M20.0204 42.5272C20.0204 41.9116 20.5093 41.4228 21.1248 41.4228H24.6915C26.864 41.4228 28.0408 42.8893 28.0408 44.6454C28.0408 46.3835 26.8459 47.8681 24.6915 47.8681H22.1568V51.4166H20.0385V42.5272H20.0204ZM24.4018 45.9852C25.2527 45.9852 25.8864 45.442 25.8683 44.6092C25.8502 43.8669 25.2165 43.2876 24.4742 43.2876H22.1387V45.9852H24.4018Z" fill="#F26D28"/>
<path d="M28.0941 51.3985L31.4797 42.672C31.7694 41.9297 32.4935 41.4228 33.2902 41.4228C34.0868 41.4228 34.811 41.9116 35.1006 42.672L38.4681 51.3985H36.0421L35.4265 49.7148H31.1538L30.5201 51.3985H28.0941ZM34.8291 47.85L33.272 43.5591L31.715 47.85H34.8291Z" fill="#F26D28"/>
<path d="M41.7251 41.4231C42.1778 41.4231 42.6123 41.6403 42.8838 42.0205L47.0659 47.7053V42.5093C47.0659 41.93 47.5366 41.4412 48.1341 41.4412C48.7134 41.4412 49.2022 41.9119 49.2022 42.5093V51.4167H47.1565L42.395 44.9172V51.4167H40.2768V42.8895C40.2768 42.0748 40.9286 41.4231 41.7251 41.4231ZM43.8977 38.5264C44.8934 38.5264 45.0563 39.5221 45.6357 39.5221C45.9435 39.5221 46.1788 39.2324 46.1788 38.6169H47.1746C47.1746 39.8842 46.6133 40.6265 45.5814 40.6265C44.5675 40.6265 44.4046 39.6126 43.8252 39.6126C43.5175 39.6126 43.2821 39.9023 43.2821 40.536H42.2864C42.2864 39.2505 42.8476 38.5264 43.8977 38.5264Z" fill="#F26D28"/>
<path d="M51.59 46.4204C51.59 43.415 53.7807 41.2606 56.7861 41.2606C59.8096 41.2606 62.0002 43.415 62.0002 46.4204C62.0002 49.4258 59.8096 51.5803 56.7861 51.5803C53.7988 51.5803 51.59 49.4258 51.59 46.4204ZM59.8277 46.4204C59.8277 44.5556 58.6327 43.1435 56.7861 43.1435C54.9394 43.1435 53.7626 44.5556 53.7626 46.4204C53.7626 48.2671 54.9394 49.6974 56.7861 49.6974C58.6327 49.6974 59.8277 48.2852 59.8277 46.4204Z" fill="#F26D28"/>
<path d="M64.4064 51.3985V42.491C64.4064 41.9116 64.8771 41.4228 65.4746 41.4228C66.0539 41.4228 66.5427 41.8935 66.5427 42.491V49.5337H70.7611V51.3985H64.4064Z" fill="#F26D28"/>
<path d="M4.83351 1.96107L7.62137 8.87642L10.4092 1.96107C10.7894 1.00161 11.7127 0.386108 12.7445 0.386108C14.1385 0.386108 15.2608 1.50849 15.2608 2.90243V14.4522H12.2557V4.60411L8.29118 14.4522H6.98777L3.02321 4.60411V14.4522H0V2.90243C0 1.5266 1.12239 0.404211 2.49822 0.404211C3.53009 0.386108 4.45334 1.01971 4.83351 1.96107Z" fill="black"/>
<path d="M20.7086 14.5962L17.3052 6.08783C16.9613 5.21888 17.5949 4.27753 18.5362 4.27753C19.0793 4.27753 19.5862 4.62148 19.7672 5.12837L22.1025 11.3558L24.4559 5.12837C24.6551 4.62148 25.1438 4.27753 25.6869 4.27753C26.6283 4.27753 27.2619 5.21888 26.9179 6.08783L21.9577 18.3255H19.025L20.7086 14.5962Z" fill="black"/>
<path d="M31.1712 1.94238C31.1712 1.09154 31.8591 0.403625 32.71 0.403625H37.7426C40.6753 0.403625 42.4675 2.32255 42.4675 4.92938C42.4675 7.4095 40.9107 8.74912 39.39 9.09307L42.558 14.4516H39.1185L36.3668 9.45514H34.1763V14.4516H31.1893V1.94238H31.1712ZM37.3082 6.8121C38.503 6.8121 39.4081 6.08798 39.4081 4.91128C39.4081 3.73458 38.503 3.01046 37.3082 3.01046H34.1763V6.8121H37.3082Z" fill="#F26D28"/>
<path d="M43.173 9.34633C43.173 6.39526 45.3455 4.00543 48.4415 4.00543C51.4831 4.00543 53.547 6.28663 53.547 9.61791C53.547 9.94379 53.2754 10.2154 52.9495 10.2154H45.9792C46.1422 11.5008 47.1741 12.569 48.9122 12.569C49.7812 12.569 50.9761 12.1888 51.6279 11.5551L52.8047 13.2751C51.7908 14.1984 50.1976 14.6872 48.6044 14.6872C45.5085 14.7053 43.173 12.6233 43.173 9.34633ZM48.4415 6.14179C46.7758 6.14179 46.0516 7.39102 45.9249 8.40489H50.9399C50.8856 7.42723 50.1976 6.14179 48.4415 6.14179Z" fill="#F26D28"/>
<path d="M54.7039 9.36444C54.7039 6.03316 56.623 4.00543 59.212 4.00543C60.4069 4.00543 61.5294 4.53047 62.326 5.56244C62.326 4.83825 62.9054 4.2589 63.6295 4.2589H63.7382C64.4624 4.2589 65.0417 4.83825 65.0417 5.56244V14.4338H62.3441V13.1302C61.5475 14.1441 60.425 14.6872 59.212 14.6872C56.6592 14.7053 54.7039 12.7681 54.7039 9.36444ZM57.4739 9.36444C57.4739 11.1206 58.524 12.3155 60.0448 12.3155C60.95 12.3155 61.9277 11.8267 62.3622 11.1568V7.57207C61.9277 6.90219 60.95 6.41337 60.0448 6.41337C58.524 6.41337 57.4739 7.59017 57.4739 9.36444Z" fill="#F26D28"/>
<path d="M66.7417 9.36524C66.7417 6.03429 68.6606 4.00675 71.2494 4.00675C72.4442 4.00675 73.5846 4.53174 74.3812 5.56361V1.72577C74.3812 0.983545 74.9786 0.368042 75.7389 0.368042C76.4811 0.368042 77.0966 0.965442 77.0966 1.72577V14.4341H74.3993V13.1307C73.6027 14.1444 72.4804 14.6875 71.2675 14.6875C68.6787 14.7056 66.7417 12.7686 66.7417 9.36524ZM69.5115 9.36524C69.5115 11.1212 70.5614 12.316 72.0821 12.316C72.9872 12.316 73.9648 11.8273 74.3993 11.1574V7.55494C73.9648 6.88513 72.9872 6.39635 72.0821 6.39635C70.5614 6.39635 69.5115 7.59115 69.5115 9.36524Z" fill="#F26D28"/>
<path d="M79.268 1.58079C79.268 0.51271 80.3361 -0.283824 81.4223 0.0963394C81.9835 0.295473 82.3817 0.784254 82.4541 1.36355C82.5809 2.34111 81.8205 3.17385 80.8611 3.17385C79.9921 3.17385 79.268 2.44973 79.268 1.58079ZM79.5396 14.452V5.61776C79.5396 4.87554 80.1369 4.27814 80.8792 4.27814C81.6214 4.27814 82.2188 4.87554 82.2188 5.61776V14.452H79.5396Z" fill="#F26D28"/>
<path d="M87.3244 5.59959C87.9762 4.82108 89.2254 4.02448 90.891 4.02448C93.1179 4.02448 94.2042 5.29181 94.2042 7.26523V14.4528H91.5247V8.2972C91.5247 6.88503 90.7824 6.3962 89.6418 6.3962C88.5917 6.3962 87.7589 6.99366 87.3244 7.59111V14.4347H84.6449V5.58148C84.6449 4.83919 85.2424 4.25984 85.9665 4.25984H85.9847C86.7451 4.27794 87.3244 4.85729 87.3244 5.59959Z" fill="#F26D28"/>
<path d="M100.484 4.02448C101.715 4.02448 102.801 4.54946 103.616 5.58133C103.616 4.85721 104.195 4.27792 104.919 4.27792H105.01C105.734 4.27792 106.313 4.85721 106.313 5.58133V13.7639C106.313 17.6379 103.326 18.5974 100.81 18.5974C99.0537 18.5974 97.7141 18.1991 96.4287 17.0768L97.6235 15.1397C98.4382 16.0449 99.5243 16.4069 100.81 16.4069C102.095 16.4069 103.616 15.8457 103.616 13.8363V12.8044C102.819 13.8182 101.715 14.3975 100.484 14.3975C97.9313 14.3975 95.9943 12.6053 95.9943 9.22004C95.9943 5.87098 97.9132 4.02448 100.484 4.02448ZM101.317 12.0079C102.204 12.0079 103.163 11.501 103.616 10.8493V7.55456C103.181 6.88475 102.204 6.39597 101.317 6.39597C99.7959 6.39597 98.7459 7.44595 98.7459 9.20194C98.7459 10.9579 99.814 12.0079 101.317 12.0079Z" fill="#F26D28"/>
<path d="M0.325653 33.6399L5.08675 21.3298C5.50312 20.2799 6.49878 19.5739 7.63928 19.5739C8.76166 19.5739 9.77543 20.2618 10.1918 21.3298L14.9348 33.6399H11.5133L10.6444 31.2503H4.61607L3.72902 33.6399H0.325653ZM9.82974 28.6254L7.63928 22.579L5.44881 28.6254H9.82974Z" fill="black"/>
<path d="M15.5132 28.7885C15.3865 25.5297 17.6677 23.1942 20.9084 23.1942C22.1938 23.1942 23.1715 23.5381 23.8776 24.0089C24.5112 24.4434 24.5837 25.3486 24.0224 25.8737C23.6241 26.2539 22.9904 26.3082 22.5378 26.0004C22.1214 25.7107 21.6145 25.5659 21.0351 25.5659C19.4057 25.5659 18.2832 26.7427 18.2832 28.5169C18.2832 30.2912 19.4238 31.4861 21.0351 31.4861C21.9585 31.4861 22.7008 31.0697 23.1896 30.3817L24.9458 32.0112C24.294 32.9345 23.0629 33.8216 21.0713 33.8579C18.1203 33.9484 15.6399 31.7396 15.5132 28.7885Z" fill="black"/>
<path d="M25.922 28.5532C25.922 25.2219 27.8411 23.1942 30.4301 23.1942C31.625 23.1942 32.7475 23.7192 33.5441 24.7512C33.5441 24.027 34.1235 23.4476 34.8477 23.4476H34.9563C35.6805 23.4476 36.2598 24.027 36.2598 24.7512V33.6225H33.5622V32.319C32.7656 33.3328 31.6431 33.876 30.4301 33.876C27.8592 33.8941 25.922 31.9569 25.922 28.5532ZM28.6739 28.5532C28.6739 30.3093 29.724 31.5042 31.2448 31.5042C32.1501 31.5042 33.1277 31.0154 33.5622 30.3455V26.7608C33.1277 26.0909 32.1501 25.6021 31.2448 25.6021C29.7421 25.6021 28.6739 26.7789 28.6739 28.5532Z" fill="black"/>
<path d="M38.0138 28.553C38.0138 25.222 39.9327 23.1945 42.5215 23.1945C43.7163 23.1945 44.8567 23.7195 45.6533 24.7514V20.9135C45.6533 20.1713 46.2507 19.5558 47.011 19.5558C47.7532 19.5558 48.3687 20.1532 48.3687 20.9135V33.6218H45.6714V32.3184C44.8749 33.3322 43.7525 33.8753 42.5396 33.8753C39.9508 33.8934 38.0138 31.9564 38.0138 28.553ZM40.7836 28.553C40.7836 30.309 41.8335 31.5038 43.3542 31.5038C44.2594 31.5038 45.2369 31.015 45.6714 30.3452V26.7427C45.2369 26.0729 44.2594 25.5841 43.3542 25.5841C41.8335 25.5841 40.7836 26.7789 40.7836 28.553Z" fill="black"/>
<path d="M50.2686 28.5351C50.2686 25.584 52.4412 23.1942 55.5371 23.1942C58.5787 23.1942 60.6426 25.4754 60.6426 28.8066C60.6426 29.1325 60.3711 29.4041 60.0452 29.4041H53.0749C53.2378 30.6895 54.2698 31.7577 56.0078 31.7577C56.8769 31.7577 58.0718 31.3775 58.7235 30.7438L59.9003 32.4638C58.8865 33.3871 57.2933 33.876 55.7 33.876C52.6041 33.8941 50.2686 31.7939 50.2686 28.5351ZM55.5371 25.3305C53.8715 25.3305 53.1473 26.5797 53.0205 27.5936H58.0356C57.9812 26.616 57.2933 25.3305 55.5371 25.3305Z" fill="black"/>
<path d="M63.7912 23.4476H63.8093C64.5515 23.4476 65.1308 24.045 65.1308 24.7691C65.5472 24.1536 66.9049 23.1942 68.4618 23.1942C69.9643 23.1942 70.9057 23.8821 71.2858 25.0407C71.8832 24.1174 73.2229 23.1942 74.7797 23.1942C76.6624 23.1942 77.7667 24.1898 77.7667 26.2717V33.6215H75.0694V27.213C75.0694 26.2717 74.653 25.5838 73.5487 25.5838C72.6074 25.5838 71.8289 26.2174 71.4488 26.7604V33.6215H68.7514V27.213C68.7514 26.2717 68.3351 25.5838 67.2308 25.5838C66.3075 25.5838 65.5291 26.2174 65.1308 26.7786V33.6215H62.4516V24.7691C62.4697 24.045 63.049 23.4476 63.7912 23.4476Z" fill="black"/>
<path d="M82.8891 33.7846L79.4857 25.2762C79.1418 24.4072 79.7754 23.4659 80.7167 23.4659C81.2598 23.4659 81.7667 23.8098 81.9477 24.3167L84.283 30.5442L86.6364 24.3167C86.8355 23.8098 87.3243 23.4659 87.8674 23.4659C88.8088 23.4659 89.4424 24.4072 89.0984 25.2762L84.1563 37.5138H81.2236L82.8891 33.7846Z" fill="black"/>
</svg>
