<svg width="108" height="38" viewBox="0 0 108 38" fill="none" xmlns="http://www.w3.org/2000/svg">
<path d="M4.85531 1.99647L7.65856 8.9588L10.4618 1.99647C10.8466 1.04373 11.781 0.402466 12.807 0.402466C14.1995 0.402466 15.3354 1.53843 15.3354 2.93089V14.547H12.294V4.65315L8.29983 14.547H6.98065L2.98647 4.65315V14.547H0V2.93089C0 1.53843 1.13596 0.420788 2.5101 0.420788C3.55445 0.420788 4.47055 1.04373 4.85531 1.99647Z" fill="black"/>
<path d="M20.8321 14.7121L17.4059 6.13742C17.0577 5.25797 17.699 4.32355 18.6334 4.32355C19.1831 4.32355 19.6778 4.67166 19.8793 5.18468L22.2245 11.4508L24.588 5.18468C24.7896 4.67166 25.2843 4.32355 25.8339 4.32355C26.7684 4.32355 27.4096 5.27629 27.0615 6.15574L22.0963 18.4681H19.1464L20.8321 14.7121Z" fill="black"/>
<path d="M31.3671 1.97826C31.3671 1.11713 32.0634 0.420898 32.9245 0.420898H37.9813C40.9312 0.420898 42.7267 2.3447 42.7267 4.98306C42.7267 7.49316 41.151 8.81234 39.6303 9.17877L42.8183 14.5654H39.3555L36.5705 9.54521H34.3719V14.5654H31.3671V1.97826ZM37.5416 6.88854C38.7509 6.88854 39.6669 6.17398 39.6669 4.98306C39.6669 3.79213 38.7509 3.07758 37.5416 3.07758H34.3902V6.88854H37.5416Z" fill="#F2003C"/>
<path d="M43.4411 9.43522C43.4411 6.46707 45.6214 4.06689 48.7361 4.06689C51.7959 4.06689 53.8662 6.35714 53.8662 9.71005C53.8662 10.0398 53.5914 10.2963 53.2799 10.2963H46.2626C46.4275 11.5972 47.4719 12.6782 49.2125 12.6782C50.0736 12.6782 51.2829 12.2934 51.9424 11.6522L53.1334 13.3928C52.1073 14.3272 50.495 14.8219 48.9193 14.8219C45.7863 14.8035 43.4411 12.7148 43.4411 9.43522ZM48.7361 6.21056C47.0688 6.21056 46.3359 7.45645 46.2077 8.48248H51.2462C51.2096 7.49309 50.5317 6.21056 48.7361 6.21056Z" fill="#F2003C"/>
<path d="M55.0573 9.45354C55.0573 6.10063 56.9811 4.06689 59.6011 4.06689C60.8103 4.06689 61.928 4.59823 62.7341 5.64258C62.7341 4.9097 63.3204 4.3234 64.0533 4.3234H64.1632C64.8961 4.3234 65.4824 4.9097 65.4824 5.64258V14.5654H62.7708V13.2462C61.9646 14.2722 60.847 14.8219 59.6194 14.8219C57.0177 14.8035 55.0573 12.8614 55.0573 9.45354ZM57.8422 9.45354C57.8422 11.2124 58.9049 12.4217 60.4256 12.4217C61.3417 12.4217 62.3127 11.927 62.7525 11.2491V7.63967C62.3127 6.96176 61.3233 6.46707 60.4256 6.46707C58.9049 6.48539 57.8422 7.65799 57.8422 9.45354Z" fill="#F2003C"/>
<path d="M67.1681 9.4536C67.1681 6.10069 69.0919 4.06696 71.7119 4.06696C72.9212 4.06696 74.0571 4.5983 74.8633 5.64264V1.77672C74.8633 1.02552 75.4679 0.420898 76.2191 0.420898C76.9703 0.420898 77.5749 1.02552 77.5749 1.77672V14.5654H74.8633V13.2462C74.0571 14.2723 72.9395 14.8219 71.7119 14.8219C69.1285 14.8036 67.1681 12.8615 67.1681 9.4536ZM69.953 9.4536C69.953 11.2125 71.0157 12.4218 72.5364 12.4218C73.4525 12.4218 74.4236 11.9271 74.8633 11.2492V7.62141C74.4236 6.9435 73.4342 6.44881 72.5364 6.44881C71.0157 6.44881 69.953 7.65806 69.953 9.4536Z" fill="#F2003C"/>
<path d="M79.7736 1.59344C79.7736 0.512443 80.8546 -0.275399 81.9355 0.0910391C82.4852 0.29258 82.9066 0.787272 82.9799 1.37357C83.1081 2.36296 82.3386 3.20577 81.3859 3.20577C80.5064 3.20577 79.7736 2.49121 79.7736 1.59344ZM80.0484 14.5654V5.6609C80.0484 4.9097 80.653 4.3234 81.3859 4.3234C82.1371 4.3234 82.7234 4.92803 82.7234 5.6609V14.5654H80.0484Z" fill="#F2003C"/>
<path d="M87.8903 5.6609C88.5499 4.87306 89.7958 4.06689 91.4814 4.06689C93.735 4.06689 94.816 5.33111 94.816 7.3282V14.5654H92.1226V8.37254C92.1226 6.94344 91.3714 6.46707 90.2355 6.46707C89.1728 6.46707 88.3483 7.05337 87.9086 7.67631V14.5654H85.197V5.6609C85.197 4.92803 85.8016 4.3234 86.5345 4.3234H86.5528C87.2857 4.3234 87.8903 4.9097 87.8903 5.6609Z" fill="#F2003C"/>
<path d="M101.119 4.06689C102.346 4.06689 103.445 4.59823 104.27 5.64258C104.27 4.9097 104.856 4.3234 105.589 4.3234H105.681C106.414 4.3234 107 4.9097 107 5.64258V13.8691C107 17.7717 103.995 18.7244 101.467 18.7244C99.7078 18.7244 98.3519 18.3213 97.0511 17.2037L98.2603 15.2616C99.0848 16.1777 100.166 16.5258 101.467 16.5258C102.768 16.5258 104.288 15.9578 104.288 13.9424V12.8981C103.482 13.9241 102.383 14.5104 101.137 14.5104C98.5718 14.5104 96.6114 12.7148 96.6114 9.28864C96.6114 5.93573 98.5352 4.06689 101.119 4.06689ZM101.961 12.0919C102.859 12.0919 103.83 11.5789 104.27 10.9193V7.62135C103.83 6.94344 102.841 6.44874 101.961 6.44874C100.441 6.44874 99.378 7.51142 99.378 9.27032C99.378 11.0292 100.441 12.0919 101.961 12.0919Z" fill="#F2003C"/>
<path d="M0.329773 33.8584L5.11179 21.4728C5.51488 20.4101 6.5409 19.7139 7.67686 19.7139C8.81282 19.7139 9.83885 20.4101 10.2419 21.4728L15.0056 33.8584H11.5794L10.7183 31.4582H4.65375L3.75597 33.8584H0.329773ZM9.89382 28.8199L7.69518 22.737L5.49655 28.8199H9.89382Z" fill="black"/>
<path d="M15.6104 29.0031C15.4821 25.7234 17.7907 23.3782 21.0337 23.3782C22.3162 23.3782 23.3056 23.7264 24.0201 24.2027C24.6614 24.6241 24.7347 25.5585 24.1667 26.0899C23.7636 26.4746 23.1407 26.5296 22.6643 26.2181C22.2429 25.925 21.7299 25.7784 21.1619 25.7784C19.5313 25.7784 18.377 26.9693 18.377 28.7466C18.377 30.5238 19.5129 31.733 21.1619 31.733C22.0963 31.733 22.8292 31.3116 23.3239 30.6337L25.0828 32.2644C24.4232 33.1988 23.1957 34.0782 21.1986 34.1332C18.2487 34.1882 15.7386 31.9529 15.6104 29.0031Z" fill="black"/>
<path d="M26.0904 28.7464C26.0904 25.3935 28.0142 23.3598 30.6343 23.3598C31.8435 23.3598 32.9611 23.8911 33.7673 24.9355C33.7673 24.2026 34.3536 23.6163 35.0865 23.6163H35.1964C35.9293 23.6163 36.5156 24.2026 36.5156 24.9355V33.8583H33.8039V32.5391C32.9978 33.5651 31.8801 34.1148 30.6526 34.1148C28.0325 34.1148 26.0904 32.1726 26.0904 28.7464ZM28.8753 28.7464C28.8753 30.5054 29.938 31.7146 31.4587 31.7146C32.3748 31.7146 33.3459 31.2199 33.7856 30.542V26.9509C33.3459 26.273 32.3565 25.7783 31.4587 25.7783C29.9197 25.7783 28.8753 26.9692 28.8753 28.7464Z" fill="black"/>
<path d="M38.256 28.7466C38.256 25.3937 40.1798 23.3599 42.7999 23.3599C44.0091 23.3599 45.1451 23.8913 45.9512 24.9356V21.0697C45.9512 20.3185 46.5559 19.7139 47.3071 19.7139C48.0583 19.7139 48.6629 20.3185 48.6629 21.0697V33.8584H45.9512V32.5392C45.1451 33.5652 44.0275 34.1149 42.7999 34.1149C40.2165 34.1149 38.256 32.1728 38.256 28.7466ZM41.041 28.7466C41.041 30.5055 42.1036 31.7147 43.6244 31.7147C44.5405 31.7147 45.5115 31.22 45.9512 30.5421V26.9144C45.5115 26.2365 44.5221 25.7418 43.6244 25.7418C42.1036 25.7601 41.041 26.9693 41.041 28.7466Z" fill="black"/>
<path d="M50.5868 28.7281C50.5868 25.76 52.7671 23.3598 55.8818 23.3598C58.9416 23.3598 61.012 25.65 61.012 29.003C61.012 29.3327 60.7371 29.5893 60.4257 29.5893H53.4084C53.5733 30.8901 54.6176 31.9711 56.3582 31.9711C57.2193 31.9711 58.4286 31.5863 59.0882 30.9451L60.2791 32.6857C59.2531 33.6201 57.6407 34.1148 56.0651 34.1148C52.932 34.1148 50.5868 32.0261 50.5868 28.7281ZM55.8818 25.5035C54.2145 25.5035 53.4817 26.7494 53.3534 27.7754H58.3919C58.337 26.8043 57.6591 25.5035 55.8818 25.5035Z" fill="black"/>
<path d="M64.2 23.6163H64.2183C64.9512 23.6163 65.5558 24.2209 65.5558 24.9538C65.9772 24.3309 67.3331 23.3598 68.9088 23.3598C70.4111 23.3598 71.3639 24.056 71.7486 25.2286C72.3349 24.2942 73.6908 23.3598 75.2665 23.3598C77.1536 23.3598 78.2713 24.3492 78.2713 26.4562V33.8583H75.5596V27.3906C75.5596 26.4379 75.1382 25.76 74.0389 25.76C73.0861 25.76 72.2983 26.4012 71.9135 26.9509V33.8583H69.2019V27.3906C69.2019 26.4379 68.7805 25.76 67.6812 25.76C66.7468 25.76 65.9589 26.4012 65.5558 26.9692V33.8583H62.8625V24.9538C62.8625 24.2209 63.4488 23.6163 64.2 23.6163Z" fill="black"/>
<path d="M83.4014 34.0049L79.9752 25.4303C79.6271 24.5508 80.2684 23.6164 81.2028 23.6164C81.7524 23.6164 82.2471 23.9645 82.4487 24.4775L84.7939 30.7436L87.1574 24.4775C87.3589 23.9645 87.8536 23.6164 88.4033 23.6164C89.3377 23.6164 89.979 24.5691 89.6309 25.4486L84.6839 37.7609H81.7341L83.4014 34.0049Z" fill="black"/>
<path d="M92.5623 20.8496C92.8737 20.8496 93.1669 20.9229 93.46 21.0878C93.7532 21.2527 93.973 21.4726 94.1379 21.7657C94.3028 22.0589 94.3761 22.352 94.3761 22.6818C94.3761 22.9933 94.3028 23.2864 94.1379 23.5796C93.973 23.8727 93.7532 24.0926 93.46 24.2575C93.1669 24.4224 92.8737 24.4957 92.5623 24.4957C92.2508 24.4957 91.9393 24.4224 91.6645 24.2575C91.3713 24.0926 91.1515 23.8727 90.9866 23.5796C90.8217 23.2864 90.7484 22.9933 90.7484 22.6818C90.7484 22.3703 90.8217 22.0589 90.9866 21.7657C91.1515 21.4726 91.3713 21.2527 91.6645 21.0878C91.976 20.9412 92.2691 20.8496 92.5623 20.8496ZM92.5623 21.1611C92.3058 21.1611 92.0676 21.2344 91.8111 21.3626C91.5729 21.4909 91.3897 21.6741 91.2431 21.9306C91.1148 22.1688 91.0415 22.4253 91.0415 22.6818C91.0415 22.9383 91.1148 23.1948 91.2431 23.433C91.3713 23.6712 91.5545 23.8544 91.8111 24.001C92.0492 24.1292 92.3058 24.2025 92.5623 24.2025C92.8188 24.2025 93.0753 24.1292 93.3135 24.001C93.5516 23.8727 93.7349 23.6895 93.8814 23.433C94.0097 23.1948 94.083 22.9383 94.083 22.6818C94.083 22.4253 94.0097 22.1688 93.8814 21.9306C93.7532 21.6924 93.5516 21.5092 93.3135 21.3626C93.0753 21.216 92.8188 21.1611 92.5623 21.1611ZM91.7744 23.6712V21.7291H92.4523C92.6722 21.7291 92.8554 21.7474 92.947 21.784C93.0569 21.8207 93.1302 21.8756 93.1852 21.9672C93.2402 22.0589 93.2768 22.1505 93.2768 22.2604C93.2768 22.407 93.2218 22.5352 93.1302 22.6268C93.0203 22.7368 92.892 22.7917 92.7271 22.8101C92.8004 22.8467 92.8554 22.865 92.892 22.92C92.9653 22.9933 93.0753 23.1215 93.1852 23.3047L93.4234 23.6895H93.0386L92.8737 23.378C92.7455 23.1398 92.6355 22.9933 92.5439 22.92C92.489 22.8833 92.3974 22.8467 92.2874 22.8467H92.1042V23.6712H91.7744ZM92.0859 22.5719H92.4706C92.6539 22.5719 92.7821 22.5535 92.8371 22.4986C92.9104 22.4436 92.9287 22.3703 92.9287 22.2787C92.9287 22.2238 92.9104 22.1688 92.8737 22.1321C92.8371 22.0955 92.8004 22.0589 92.7455 22.0222C92.6905 21.9856 92.5806 21.9856 92.434 21.9856H92.0676V22.5719H92.0859Z" fill="black"/>
</svg>
