<svg width="94" height="38" viewBox="0 0 94 38" fill="none" xmlns="http://www.w3.org/2000/svg">
<path d="M4.842 1.57773L7.63476 8.50523L10.4275 1.57773C10.8083 0.616584 11.7332 0 12.7669 0C14.1633 0 15.2876 1.12436 15.2876 2.52074V14.0907H12.2773V4.22541L8.30574 14.0907H7.00004L2.99224 4.22541V14.0907H0V2.52074C0 1.14249 1.12436 0.0181359 2.5026 0.0181359C3.53629 1.10659e-06 4.44303 0.616584 4.842 1.57773Z" fill="white"/>
<path d="M20.6713 14.2359L17.2619 5.71256C16.9174 4.84209 17.5521 3.89908 18.4951 3.89908C19.0391 3.89908 19.5469 4.24364 19.7283 4.75141L22.0676 10.9898L24.4252 4.75141C24.6247 4.24364 25.1143 3.89908 25.6583 3.89908C26.6013 3.89908 27.2361 4.84209 26.8915 5.71256L21.9407 17.9717H19.0029L20.6713 14.2359Z" fill="white"/>
<path d="M35.9921 1.57776L38.7849 8.50526L41.5776 1.57776C41.9585 0.616615 42.8833 3.05176e-05 43.917 3.05176e-05C45.3134 3.05176e-05 46.4378 1.12439 46.4378 2.52077V14.0908H43.4274V4.22544L39.4559 14.0908H38.1502L34.1605 4.22544V14.0908H31.1501V2.52077C31.1501 1.14252 32.2745 0.0181664 33.6527 0.0181664C34.6864 3.16242e-05 35.6113 0.616615 35.9921 1.57776Z" fill="white"/>
<path d="M48.2672 8.99477C48.2672 5.65783 50.1895 3.62665 52.7829 3.62665C53.9798 3.62665 55.1043 4.15258 55.9022 5.18631C55.9022 4.46088 56.4826 3.88055 57.208 3.88055H57.3168C58.0422 3.88055 58.6225 4.46088 58.6225 5.18631V14.0727H55.9204V12.767C55.1224 13.7826 53.998 14.3266 52.7829 14.3266C50.2077 14.3266 48.2672 12.3861 48.2672 8.99477ZM51.0419 8.99477C51.0419 10.7539 52.0938 11.9509 53.6171 11.9509C54.5239 11.9509 55.5032 11.4612 55.9385 10.7902V7.19935C55.5032 6.52833 54.5239 6.03868 53.6171 6.03868C52.0938 6.03868 51.0419 7.21749 51.0419 8.99477Z" fill="white"/>
<path d="M61.9021 6.21951H61.3762C60.7234 6.21951 60.1975 5.69362 60.1975 5.04079C60.1975 4.38796 60.7234 3.86208 61.3762 3.86208H61.9021V2.41135C61.9021 1.66785 62.5005 1.06943 63.244 1.06943C63.9875 1.06943 64.586 1.66785 64.586 2.41135V3.86208H65.5108C66.1636 3.86208 66.6895 4.38796 66.6895 5.04079C66.6895 5.69362 66.1636 6.21951 65.5108 6.21951H64.586V14.0716H61.9021V6.21951Z" fill="white"/>
<path d="M70.8417 1.34204V5.22289C71.4945 4.44309 72.764 3.64516 74.4324 3.64516C76.663 3.64516 77.7511 4.87833 77.7511 6.85502V14.0908H75.0671V7.8887C75.0671 6.47419 74.3236 6.03895 73.163 6.03895C72.1293 6.03895 71.3132 6.6374 70.8417 7.23585V14.0908H68.1577V1.34204C68.1577 0.59851 68.7562 6.10352e-05 69.4997 6.10352e-05C70.2432 6.10352e-05 70.8417 0.59851 70.8417 1.34204Z" fill="white"/>
<path d="M0.326538 33.2912L5.09599 20.9595C5.51309 19.9077 6.51051 19.2004 7.653 19.2004C8.77736 19.2004 9.79291 19.8895 10.21 20.9595L14.9613 33.2912H11.5339L10.6634 30.8974H4.62449L3.73588 33.2912H0.326538ZM9.84731 28.2678L7.653 22.2108L5.45869 28.2678H9.84731Z" fill="white"/>
<path d="M15.5392 28.4501C15.4123 25.1857 17.6974 22.8463 20.9436 22.8463C22.2313 22.8463 23.2106 23.1908 23.9179 23.6624C24.5526 24.0976 24.6252 25.0044 24.063 25.5303C23.664 25.9112 23.0292 25.9656 22.5758 25.6573C22.1587 25.3671 21.6509 25.222 21.0706 25.222C19.4384 25.222 18.314 26.4008 18.314 28.1781C18.314 29.9554 19.4565 31.1523 21.0706 31.1523C21.9955 31.1523 22.7391 30.7352 23.2287 30.0461L24.9879 31.6783C24.335 32.6032 23.1018 33.4918 21.1069 33.5281C18.1508 33.6188 15.6662 31.3881 15.5392 28.4501Z" fill="white"/>
<path d="M25.965 28.2144C25.965 24.8774 27.8874 22.8463 30.4807 22.8463C31.6777 22.8463 32.8021 23.3722 33.6001 24.4059C33.6001 23.6805 34.1804 23.1002 34.9058 23.1002H35.0146C35.7401 23.1002 36.3204 23.6805 36.3204 24.4059V33.2923H33.6182V31.9866C32.8202 33.0022 31.6958 33.5462 30.4807 33.5462C27.9055 33.5462 25.965 31.6057 25.965 28.2144ZM28.7216 28.2144C28.7216 29.9735 29.7735 31.1705 31.2968 31.1705C32.2036 31.1705 33.1829 30.6808 33.6182 30.0098V26.419C33.1829 25.7479 32.2036 25.2583 31.2968 25.2583C29.7916 25.2583 28.7216 26.4371 28.7216 28.2144Z" fill="white"/>
<path d="M38.077 28.2136C38.077 24.8768 39.9993 22.8457 42.5926 22.8457C43.7895 22.8457 44.932 23.3716 45.7299 24.4053V20.5607C45.7299 19.8172 46.3284 19.2006 47.09 19.2006C47.8336 19.2006 48.4501 19.7991 48.4501 20.5607V33.2914H45.748V31.9857C44.9501 33.0012 43.8258 33.5453 42.6107 33.5453C40.0175 33.5453 38.077 31.6048 38.077 28.2136ZM40.8516 28.2136C40.8516 29.9727 41.9035 31.1696 43.4268 31.1696C44.3335 31.1696 45.3128 30.68 45.748 30.009V26.4001C45.3128 25.7291 44.3335 25.2395 43.4268 25.2395C41.9035 25.2395 40.8516 26.4364 40.8516 28.2136Z" fill="white"/>
<path d="M50.3336 28.1962C50.3336 25.2401 52.5098 22.8463 55.611 22.8463C58.6578 22.8463 60.7252 25.1313 60.7252 28.4683C60.7252 28.7947 60.4532 29.0667 60.1267 29.0667H53.1446C53.3078 30.3544 54.3415 31.4244 56.0825 31.4244C56.953 31.4244 58.15 31.0435 58.8029 30.4088L59.9817 32.1317C58.9661 33.0566 57.3701 33.5462 55.7742 33.5462C52.6912 33.5462 50.3336 31.4606 50.3336 28.1962ZM55.611 24.9862C53.9425 24.9862 53.2171 26.2376 53.0902 27.2532H58.1137C58.0593 26.2739 57.3883 24.9862 55.611 24.9862Z" fill="white"/>
<path d="M63.8964 23.1001H63.9146C64.6581 23.1001 65.2384 23.6986 65.2384 24.424C65.6555 23.8074 67.0156 22.8463 68.5752 22.8463C70.0804 22.8463 71.0234 23.5354 71.4042 24.696C72.0027 23.7711 73.3447 22.8463 74.9042 22.8463C76.7903 22.8463 77.8965 23.8437 77.8965 25.9292V33.2919H75.2125V26.854C75.2125 25.911 74.7954 25.2219 73.6892 25.2219C72.7462 25.2219 71.9664 25.8566 71.5856 26.4007V33.2738H68.8654V26.8359C68.8654 25.8929 68.4483 25.2038 67.342 25.2038C66.4172 25.2038 65.6374 25.8385 65.2384 26.4007V33.2556H62.5544V24.3877C62.5544 23.6986 63.1529 23.1001 63.8964 23.1001Z" fill="white"/>
<path d="M83.0076 33.437L79.5983 24.9136C79.2537 24.0432 79.8884 23.1002 80.8314 23.1002C81.3755 23.1002 81.8832 23.4447 82.0646 23.9525L84.404 30.1909L86.7615 23.9525C86.961 23.4447 87.4506 23.1002 87.9947 23.1002C88.9377 23.1002 89.5724 24.0432 89.2278 24.9136L84.277 37.1909H81.3392L83.0076 33.437Z" fill="white"/>
<path d="M91.9829 20.7244C92.255 20.7244 92.5271 20.797 92.7811 20.9421C93.0351 21.0872 93.2528 21.2868 93.3979 21.5407C93.543 21.7947 93.6156 22.0668 93.6156 22.3571C93.6156 22.6473 93.543 22.9013 93.3979 23.1734C93.2528 23.4455 93.0532 23.6269 92.7992 23.7721C92.5453 23.9172 92.2732 23.9897 91.9829 23.9897C91.6926 23.9897 91.4205 23.9172 91.1666 23.7721C90.9126 23.6269 90.713 23.4274 90.5679 23.1734C90.4228 22.9194 90.3502 22.6473 90.3502 22.3571C90.3502 22.0668 90.4228 21.7947 90.5679 21.5407C90.713 21.2868 90.9126 21.0691 91.1847 20.9421C91.4568 20.797 91.7108 20.7244 91.9829 20.7244ZM91.9829 20.9965C91.7471 20.9965 91.5294 21.0509 91.3117 21.1779C91.094 21.3049 90.9307 21.4682 90.8037 21.6859C90.6768 21.9036 90.6223 22.1394 90.6223 22.3752C90.6223 22.611 90.6768 22.8287 90.8037 23.0464C90.9307 23.2641 91.094 23.4274 91.3117 23.5544C91.5294 23.6814 91.7471 23.7358 91.9829 23.7358C92.2187 23.7358 92.4364 23.6814 92.6541 23.5544C92.8718 23.4274 93.0351 23.2641 93.1621 23.0464C93.289 22.8287 93.3435 22.611 93.3435 22.3752C93.3435 22.1394 93.289 21.9036 93.1621 21.6859C93.0351 21.4682 92.8718 21.3049 92.6541 21.1779C92.4364 21.0509 92.2187 20.9965 91.9829 20.9965ZM91.2754 23.2641V21.5045H91.8741C92.0736 21.5045 92.2369 21.5226 92.3276 21.5589C92.4183 21.5952 92.4908 21.6496 92.5453 21.7221C92.5997 21.7947 92.636 21.8854 92.636 21.9761C92.636 22.1031 92.5815 22.2119 92.4908 22.3026C92.4001 22.3934 92.2731 22.4478 92.128 22.4659C92.1824 22.4841 92.2369 22.5203 92.2731 22.5566C92.3457 22.6292 92.4364 22.738 92.5271 22.9013L92.7448 23.246H92.4001L92.2369 22.9739C92.1099 22.7562 92.0192 22.611 91.9466 22.5566C91.8922 22.5203 91.8196 22.5022 91.7108 22.5022H91.5475V23.246H91.2754V23.2641ZM91.5657 22.2664H91.9103C92.0736 22.2664 92.1824 22.2482 92.255 22.1938C92.3094 22.1394 92.3457 22.085 92.3457 21.9943C92.3457 21.9398 92.3276 21.9036 92.3094 21.8491C92.2731 21.8128 92.2369 21.7766 92.1824 21.7584C92.128 21.7403 92.0373 21.7221 91.8922 21.7221H91.5657V22.2664Z" fill="white"/>
</svg>
